<mxfile host="app.diagrams.net" modified="2022-03-01T07:21:52.374Z" agent="5.0 (Windows NT 10.0; Win64; x64) AppleWebKit/537.36 (KHTML, like Gecko) Chrome/98.0.4758.102 Safari/537.36" etag="NONscJJBcJ6WizoxoTaf" version="16.6.4" type="github">
  <diagram id="1mFwXQxSHCd4Fhyjk1If" name="Page-1">
    <mxGraphModel dx="1038" dy="579" grid="1" gridSize="10" guides="1" tooltips="1" connect="1" arrows="1" fold="1" page="1" pageScale="1" pageWidth="850" pageHeight="1100" math="0" shadow="0">
      <root>
        <mxCell id="0" />
        <mxCell id="1" parent="0" />
        <mxCell id="daIbei-40qV8W_UZv65s-8" style="edgeStyle=orthogonalEdgeStyle;rounded=0;orthogonalLoop=1;jettySize=auto;html=1;exitX=0.5;exitY=0;exitDx=0;exitDy=0;entryX=0.5;entryY=1;entryDx=0;entryDy=0;" parent="1" source="daIbei-40qV8W_UZv65s-1" target="daIbei-40qV8W_UZv65s-7" edge="1">
          <mxGeometry relative="1" as="geometry" />
        </mxCell>
        <mxCell id="daIbei-40qV8W_UZv65s-1" value="R0" style="whiteSpace=wrap;html=1;aspect=fixed;" parent="1" vertex="1">
          <mxGeometry x="160" y="400" width="80" height="80" as="geometry" />
        </mxCell>
        <mxCell id="daIbei-40qV8W_UZv65s-13" style="edgeStyle=orthogonalEdgeStyle;rounded=0;orthogonalLoop=1;jettySize=auto;html=1;exitX=1;exitY=0.5;exitDx=0;exitDy=0;entryX=0;entryY=0.5;entryDx=0;entryDy=0;" parent="1" source="daIbei-40qV8W_UZv65s-4" target="daIbei-40qV8W_UZv65s-11" edge="1">
          <mxGeometry relative="1" as="geometry" />
        </mxCell>
        <mxCell id="daIbei-40qV8W_UZv65s-4" value="R1" style="whiteSpace=wrap;html=1;aspect=fixed;" parent="1" vertex="1">
          <mxGeometry x="160" y="120" width="80" height="80" as="geometry" />
        </mxCell>
        <mxCell id="daIbei-40qV8W_UZv65s-17" style="edgeStyle=orthogonalEdgeStyle;rounded=0;orthogonalLoop=1;jettySize=auto;html=1;exitX=0;exitY=0.5;exitDx=0;exitDy=0;entryX=1;entryY=0.5;entryDx=0;entryDy=0;" parent="1" source="daIbei-40qV8W_UZv65s-5" target="daIbei-40qV8W_UZv65s-12" edge="1">
          <mxGeometry relative="1" as="geometry" />
        </mxCell>
        <mxCell id="daIbei-40qV8W_UZv65s-5" value="R3" style="whiteSpace=wrap;html=1;aspect=fixed;" parent="1" vertex="1">
          <mxGeometry x="440" y="400" width="80" height="80" as="geometry" />
        </mxCell>
        <mxCell id="daIbei-40qV8W_UZv65s-15" style="edgeStyle=orthogonalEdgeStyle;rounded=0;orthogonalLoop=1;jettySize=auto;html=1;exitX=0.5;exitY=1;exitDx=0;exitDy=0;entryX=0.5;entryY=0;entryDx=0;entryDy=0;" parent="1" source="daIbei-40qV8W_UZv65s-6" target="daIbei-40qV8W_UZv65s-10" edge="1">
          <mxGeometry relative="1" as="geometry" />
        </mxCell>
        <mxCell id="daIbei-40qV8W_UZv65s-6" value="R2" style="whiteSpace=wrap;html=1;aspect=fixed;" parent="1" vertex="1">
          <mxGeometry x="440" y="120" width="80" height="80" as="geometry" />
        </mxCell>
        <mxCell id="daIbei-40qV8W_UZv65s-9" style="edgeStyle=orthogonalEdgeStyle;rounded=0;orthogonalLoop=1;jettySize=auto;html=1;exitX=0.5;exitY=0;exitDx=0;exitDy=0;" parent="1" source="daIbei-40qV8W_UZv65s-7" edge="1">
          <mxGeometry relative="1" as="geometry">
            <mxPoint x="200" y="200" as="targetPoint" />
          </mxGeometry>
        </mxCell>
        <mxCell id="daIbei-40qV8W_UZv65s-7" value="P1" style="ellipse;whiteSpace=wrap;html=1;aspect=fixed;fillColor=#FFFF66;" parent="1" vertex="1">
          <mxGeometry x="165" y="270" width="70" height="70" as="geometry" />
        </mxCell>
        <mxCell id="daIbei-40qV8W_UZv65s-16" style="edgeStyle=orthogonalEdgeStyle;rounded=0;orthogonalLoop=1;jettySize=auto;html=1;exitX=0.5;exitY=1;exitDx=0;exitDy=0;entryX=0.5;entryY=0;entryDx=0;entryDy=0;" parent="1" source="daIbei-40qV8W_UZv65s-10" target="daIbei-40qV8W_UZv65s-5" edge="1">
          <mxGeometry relative="1" as="geometry" />
        </mxCell>
        <mxCell id="daIbei-40qV8W_UZv65s-10" value="P3" style="ellipse;whiteSpace=wrap;html=1;aspect=fixed;fillColor=#FFFF66;" parent="1" vertex="1">
          <mxGeometry x="445" y="260" width="70" height="70" as="geometry" />
        </mxCell>
        <mxCell id="daIbei-40qV8W_UZv65s-14" style="edgeStyle=orthogonalEdgeStyle;rounded=0;orthogonalLoop=1;jettySize=auto;html=1;exitX=1;exitY=0.5;exitDx=0;exitDy=0;" parent="1" source="daIbei-40qV8W_UZv65s-11" edge="1">
          <mxGeometry relative="1" as="geometry">
            <mxPoint x="440" y="160" as="targetPoint" />
          </mxGeometry>
        </mxCell>
        <mxCell id="daIbei-40qV8W_UZv65s-11" value="P2" style="ellipse;whiteSpace=wrap;html=1;aspect=fixed;fillColor=#FFFF66;" parent="1" vertex="1">
          <mxGeometry x="310" y="130" width="60" height="60" as="geometry" />
        </mxCell>
        <mxCell id="daIbei-40qV8W_UZv65s-18" style="edgeStyle=orthogonalEdgeStyle;rounded=0;orthogonalLoop=1;jettySize=auto;html=1;exitX=0;exitY=0.5;exitDx=0;exitDy=0;entryX=1;entryY=0.5;entryDx=0;entryDy=0;" parent="1" source="daIbei-40qV8W_UZv65s-12" target="daIbei-40qV8W_UZv65s-1" edge="1">
          <mxGeometry relative="1" as="geometry" />
        </mxCell>
        <mxCell id="daIbei-40qV8W_UZv65s-12" value="P4" style="ellipse;whiteSpace=wrap;html=1;aspect=fixed;fillColor=#FFFF66;" parent="1" vertex="1">
          <mxGeometry x="310" y="405" width="70" height="70" as="geometry" />
        </mxCell>
      </root>
    </mxGraphModel>
  </diagram>
</mxfile>
